# xmcd
#
# Track frame offsets: 
#        150
#        13457
#        30347
#        46466
#        62838
#        87156
#        100938
#        122709
#        140892
#        155958
#        172618
#
# Disc length: 2575 seconds
#
# Revision: 0
# Processed by: cddbd v1.5.2PL0 Copyright (c) Steve Scherf et al.
# Submitted via: ExactAudioCopy v0.99pb4
#
DISCID=940a0d0b
DTITLE=Michelle S. White - Whispers Of A Ghost
DYEAR=2011
DGENRE=Blues
TTITLE0=The Arrival of the Evening
TTITLE1=Requiem
TTITLE2=Cold
TTITLE3=Listening for You
TTITLE4=Feathers
TTITLE5=The Quickening
TTITLE6=The Ghosts of Nashville
TTITLE7=Everywhere
TTITLE8=Walking Through the Night
TTITLE9=Nowhere Train
TTITLE10=The Previous Tenant
EXTD=
EXTT0=
EXTT1=
EXTT2=
EXTT3=
EXTT4=
EXTT5=
EXTT6=
EXTT7=
EXTT8=
EXTT9=
EXTT10=
PLAYORDER=
